<svg xmlns="http://www.w3.org/2000/svg" viewBox="0 0 98 98">
  <g transform="translate(-745 -1719)">
    <path d="M49,0A49,49,0,1,1,0,49,49,49,0,0,1,49,0Z" transform="translate(745 1719)" fill="#f0f2fb"/>
    <path d="M2,0H48a2,2,0,0,1,2,2V29a2,2,0,0,1-2,2H2a2,2,0,0,1-2-2V2A2,2,0,0,1,2,0Z" transform="translate(769 1764.833)" fill="#fff" stroke="#4c5add" stroke-linecap="round" stroke-width="6"/>
    <path d="M7,26.9V15.833a13.833,13.833,0,1,1,27.666,0V26.9" transform="translate(773.167 1738.167)" fill="rgba(255,255,255,0)" stroke="#4c5add" stroke-linecap="round" stroke-linejoin="round" stroke-width="6"/>
  </g>
</svg>
